# xmcd
#
# Track frame offsets:
#	150
#	23932
#	37837
#	52225
#	70222
#	87037
#	105440
#	119005
#	137505
#	154142
#	167885
#	186492
#
# Disc length: 2693 seconds
#
# Revision: 1
# Processed by: cddbd v1.5.1PL0 Copyright (c) Steve Scherf et al.
# Submitted via: CDex 1.50Beta5
#
DISCID=a30a830c
DTITLE=さまざまなアーティスト - Smellz Like ・・・〜a tribute to xxxxxxx
DYEAR=1900
DGENRE=
TTITLE0=Video Drome/Smells Like Teens Spirits
TTITLE1=Lo-Lite/Breed
TTITLE2=SA/Territorial Pissing
TTITLE3=All Living Thing/Pennyroyal Tea
TTITLE4=Pathfinder/Come As You Are
TTITLE5=TGMX/Sliver
TTITLE6=Epoxy/Dumb
TTITLE7=Id&The Galaxys/In Bloom
TTITLE8=Spoony/All Apologies
TTITLE9=Coner/About A Girl
TTITLE10=Sleeper/Something In A Way
TTITLE11=Sobut/You Know You're Right
EXTD=
EXTT0=
EXTT1=
EXTT2=
EXTT3=
EXTT4=
EXTT5=
EXTT6=
EXTT7=
EXTT8=
EXTT9=
EXTT10=
EXTT11=
PLAYORDER=
